<svg width="400" height="400" viewBox="0 0 400 400" fill="none" xmlns="http://www.w3.org/2000/svg">
<rect width="400" height="400" rx="60" fill="white"/>
<path d="M166.504 65.144C180.355 41.118 211.059 32.8689 235.085 46.7192L310.908 90.4285C334.934 104.279 343.183 134.984 329.332 159.01L292.056 223.672C278.206 247.698 247.501 255.947 223.475 242.097L147.653 198.388C123.627 184.537 115.378 153.833 129.228 129.807L166.504 65.144Z" fill="white"/>
<path d="M150.445 93.2333C167.405 63.8138 205.002 53.7129 234.422 70.6724L271.742 92.1866C301.162 109.146 311.263 146.744 294.303 176.163L268.287 221.294C251.327 250.714 213.73 260.815 184.31 243.855L146.989 222.341C117.57 205.381 107.469 167.784 124.429 138.364L150.445 93.2333Z" fill="white"/>
<path fill-rule="evenodd" clip-rule="evenodd" d="M253.363 81.5915C269.566 90.9319 282.306 98.2762 291.474 105.336C300.869 112.585 307.297 120.105 309.99 130.105C312.67 140.127 310.88 149.85 306.376 160.826C301.987 171.534 294.647 184.267 285.303 200.477L284.816 201.32C275.476 217.523 268.132 230.263 261.072 239.432C253.823 248.826 246.303 255.255 236.303 257.947C226.303 260.64 216.558 258.837 205.582 254.333C194.874 249.945 182.141 242.604 165.931 233.26L165.087 232.774C148.885 223.433 136.145 216.089 126.976 209.029C117.582 201.78 111.153 194.26 108.461 184.26C105.781 174.238 107.57 164.516 112.075 153.539C116.463 142.831 123.803 130.098 133.148 113.888L133.634 113.045C142.975 96.8421 150.319 84.102 157.379 74.9335C164.628 65.5391 172.148 59.1106 182.148 56.4178C192.17 53.7378 201.892 55.5277 212.869 60.0319C223.577 64.4207 236.31 71.7607 252.52 81.1053L253.363 81.5915ZM262.282 148.537C262.258 149.659 262.013 150.765 261.561 151.792C261.109 152.819 260.46 153.747 259.649 154.523C258.838 155.299 257.883 155.907 256.837 156.314C255.791 156.72 254.675 156.916 253.553 156.891C240.211 156.593 223.979 162.711 210.287 169.653C202.959 173.383 195.856 177.54 189.015 182.102L187.419 183.212C186.151 184.116 184.66 184.655 183.107 184.773C181.555 184.89 179.999 184.581 178.61 183.878C177.22 183.176 176.049 182.107 175.224 180.787C174.398 179.467 173.949 177.946 173.925 176.389C173.845 171.227 172.211 165.614 170.367 160.982C169.634 159.137 168.819 157.326 167.927 155.554L166.932 153.689C165.787 151.735 165.465 149.405 166.037 147.214C166.609 145.022 168.028 143.147 169.982 142.002C171.936 140.857 174.266 140.535 176.457 141.107C178.649 141.679 180.524 143.098 181.669 145.053L183.171 147.85C184.005 149.514 185.117 151.861 186.24 154.667C187.092 156.814 187.984 159.319 188.763 162.055C192.63 159.74 197.329 157.077 202.564 154.427C216.729 147.245 236.146 139.414 253.936 139.812C256.199 139.863 258.35 140.811 259.915 142.447C261.481 144.083 262.332 146.273 262.282 148.537Z" fill="url(#paint0_linear_282_5522)"/>
<path d="M108.128 131.971C114.321 104.939 141.256 88.0461 168.288 94.2397L253.596 113.786C280.628 119.979 297.52 146.914 291.327 173.946L274.658 246.698C268.464 273.73 241.529 290.623 214.498 284.429L129.189 264.883C102.158 258.689 85.2649 231.755 91.4585 204.723L108.128 131.971Z" fill="white"/>
<path d="M101.014 163.535C108.598 130.435 141.579 109.75 174.679 117.334L216.669 126.955C249.769 134.539 270.454 167.52 262.87 200.62L251.236 251.397C243.652 284.497 210.671 305.182 177.571 297.598L135.581 287.977C102.481 280.393 81.7961 247.412 89.3801 214.312L101.014 163.535Z" fill="white"/>
<path fill-rule="evenodd" clip-rule="evenodd" d="M195.99 122.217C214.22 126.394 228.554 129.678 239.39 133.738C250.497 137.912 258.849 143.216 264.357 151.986C269.859 160.781 270.999 170.601 269.913 182.416C268.858 193.94 265.576 208.266 261.397 226.504L261.18 227.453C257.003 245.683 253.719 260.017 249.659 270.853C245.484 281.96 240.18 290.312 231.41 295.819C222.64 301.327 212.795 302.462 200.98 301.376C189.456 300.321 175.13 297.039 156.892 292.86L155.943 292.642C137.714 288.466 123.38 285.181 112.544 281.122C101.436 276.947 93.0845 271.643 87.5769 262.873C82.0751 254.078 80.9345 244.258 82.0208 232.443C83.0755 220.919 86.3579 206.593 90.5366 188.355L90.754 187.406C94.9309 169.176 98.2151 154.842 102.275 144.006C106.449 132.899 111.753 124.547 120.524 119.04C129.319 113.538 139.138 112.397 150.953 113.483C162.478 114.538 176.803 117.821 195.041 121.999L195.99 122.217ZM224.154 183.601C224.46 184.681 224.55 185.81 224.42 186.925C224.289 188.039 223.94 189.117 223.392 190.096C222.845 191.076 222.11 191.938 221.229 192.633C220.348 193.328 219.339 193.843 218.259 194.148C205.417 197.776 191.693 208.387 180.64 219.04C174.728 224.755 169.157 230.813 163.955 237.181L162.755 238.711C161.807 239.946 160.54 240.899 159.09 241.467C157.641 242.035 156.063 242.195 154.529 241.931C152.994 241.667 151.561 240.989 150.384 239.969C149.208 238.949 148.332 237.627 147.853 236.146C146.262 231.235 143.054 226.347 139.932 222.46C138.69 220.912 137.381 219.419 136.007 217.986L134.509 216.495C132.841 214.963 131.85 212.831 131.754 210.568C131.658 208.304 132.465 206.096 133.997 204.428C135.529 202.76 137.662 201.769 139.925 201.673C142.188 201.577 144.396 202.384 146.064 203.916L148.321 206.15C149.607 207.496 151.358 209.413 153.255 211.766C154.699 213.569 156.286 215.703 157.833 218.09C160.852 214.742 164.563 210.818 168.79 206.749C180.225 195.728 196.492 182.546 213.615 177.709C215.794 177.093 218.129 177.368 220.105 178.473C222.081 179.578 223.537 181.423 224.154 183.601Z" fill="url(#paint1_linear_282_5522)"/>
<path d="M68.5024 214.065C68.5024 186.333 90.9839 163.852 118.716 163.852H206.235C233.967 163.852 256.449 186.333 256.449 214.065V288.703C256.449 316.435 233.967 338.917 206.235 338.917H118.716C90.9839 338.917 68.5024 316.435 68.5024 288.703V214.065Z" fill="white"/>
<path d="M68.618 246.421C68.618 212.463 96.1463 184.935 130.104 184.935H173.182C207.14 184.935 234.668 212.463 234.668 246.421V298.514C234.668 332.472 207.14 360 173.182 360H130.104C96.1463 360 68.618 332.472 68.618 298.514V246.421Z" fill="white"/>
<path fill-rule="evenodd" clip-rule="evenodd" d="M151.967 184.935C170.67 184.935 185.375 184.935 196.844 186.472C208.603 188.061 217.928 191.365 225.256 198.684C232.583 206.028 235.888 215.345 237.467 227.104C239.013 238.573 239.013 253.27 239.013 271.981V272.954C239.013 291.656 239.013 306.362 237.476 317.831C235.888 329.59 232.583 338.915 225.264 346.242C217.946 353.569 208.603 356.874 196.844 358.454C185.375 360 170.678 360 151.967 360H150.994C132.292 360 117.586 360 106.118 358.463C94.3583 356.874 85.0329 353.569 77.7058 346.251C70.3787 338.907 67.0738 329.59 65.4939 317.831C63.9482 306.362 63.9482 291.665 63.9482 272.954V271.981C63.9482 253.279 63.9482 238.573 65.4854 227.104C67.0738 215.345 70.3787 206.02 77.6972 198.693C85.0414 191.365 94.3583 188.061 106.118 186.481C117.586 184.935 132.283 184.935 150.994 184.935H151.967ZM193.129 238.479C193.668 239.463 194.009 240.544 194.13 241.659C194.252 242.775 194.152 243.903 193.837 244.98C193.522 246.057 192.998 247.062 192.295 247.936C191.592 248.81 190.723 249.538 189.739 250.076C178.031 256.481 167.023 269.888 158.628 282.741C154.143 289.632 150.065 296.781 146.417 304.15L145.588 305.909C144.941 307.325 143.919 308.537 142.632 309.414C141.346 310.291 139.844 310.8 138.289 310.885C136.735 310.971 135.186 310.629 133.812 309.898C132.437 309.167 131.288 308.074 130.49 306.737C127.843 302.305 123.624 298.257 119.713 295.166C118.157 293.934 116.547 292.772 114.888 291.682L113.095 290.563C111.126 289.442 109.684 287.585 109.085 285.4C108.486 283.216 108.78 280.883 109.901 278.915C111.022 276.947 112.879 275.505 115.063 274.906C117.248 274.307 119.581 274.6 121.549 275.721L124.247 277.395C125.802 278.42 127.937 279.897 130.311 281.767C132.121 283.202 134.145 284.927 136.186 286.908C138.381 282.971 141.122 278.317 144.333 273.407C153.018 260.11 165.93 243.629 181.541 235.089C183.527 234.002 185.864 233.749 188.037 234.385C190.21 235.021 192.042 236.493 193.129 238.479Z" fill="url(#paint2_linear_282_5522)"/>
<defs>
<linearGradient id="paint0_linear_282_5522" x1="200" y1="40" x2="200" y2="360" gradientUnits="userSpaceOnUse">
<stop stop-color="#21D4FD"/>
<stop offset="0.5" stop-color="#A855F7"/>
<stop offset="1" stop-color="#8A2BE2"/>
</linearGradient>
<linearGradient id="paint1_linear_282_5522" x1="200" y1="40" x2="200" y2="360" gradientUnits="userSpaceOnUse">
<stop stop-color="#21D4FD"/>
<stop offset="0.5" stop-color="#A855F7"/>
<stop offset="1" stop-color="#8A2BE2"/>
</linearGradient>
<linearGradient id="paint2_linear_282_5522" x1="200" y1="40" x2="200" y2="360" gradientUnits="userSpaceOnUse">
<stop stop-color="#21D4FD"/>
<stop offset="0.5" stop-color="#A855F7"/>
<stop offset="1" stop-color="#8A2BE2"/>
</linearGradient>
</defs>
</svg>
