<svg width="21" height="22" viewBox="0 0 21 22" fill="none" xmlns="http://www.w3.org/2000/svg">
<path d="M2.33058 20.57H7.60487V13.3101C7.60487 12.9831 7.71582 12.709 7.93772 12.4879C8.15868 12.2658 8.43248 12.1547 8.75915 12.1547H13.0449C13.3715 12.1547 13.6458 12.2658 13.8677 12.4879C14.0887 12.709 14.1992 12.9831 14.1992 13.3101V20.57H19.4734V8.14079C19.4734 7.99398 19.4415 7.86051 19.3777 7.7404C19.3139 7.62028 19.2268 7.51541 19.1163 7.4258L11.4249 1.62301C11.2782 1.49527 11.1039 1.43139 10.902 1.43139C10.7001 1.43139 10.5263 1.49527 10.3806 1.62301L2.68772 7.4258C2.5782 7.51732 2.49106 7.62219 2.42629 7.7404C2.36153 7.85861 2.32963 7.99207 2.33058 8.14079V20.57ZM0.902008 20.57V8.14079C0.902008 7.77472 0.983913 7.42819 1.14772 7.1012C1.31153 6.77422 1.53725 6.50491 1.82487 6.29327L9.51772 0.461879C9.92058 0.15396 10.3806 0 10.8977 0C11.4149 0 11.8777 0.15396 12.2863 0.461879L19.9792 6.29184C20.2677 6.50348 20.4934 6.77326 20.6563 7.1012C20.8201 7.42819 20.902 7.77472 20.902 8.14079V20.57C20.902 20.9533 20.7596 21.2874 20.4749 21.5724C20.1901 21.8575 19.8563 22 19.4734 22H13.9249C13.5972 22 13.323 21.8894 13.102 21.6682C12.8811 21.4461 12.7706 21.1716 12.7706 20.8446V13.5861H9.03344V20.8446C9.03344 21.1725 8.92296 21.4471 8.70201 21.6682C8.48106 21.8894 8.20725 22 7.88058 22H2.33058C1.94772 22 1.61391 21.8575 1.32915 21.5724C1.04439 21.2874 0.902008 20.9533 0.902008 20.57Z" fill="black"/>
</svg>
