<svg width="15" height="12" viewBox="0 0 15 12" fill="none" xmlns="http://www.w3.org/2000/svg">
<path d="M3.4375 3.15789C3.4375 2.90907 3.486 2.66269 3.58023 2.43281C3.67445 2.20293 3.81256 1.99406 3.98667 1.81811C4.16078 1.64217 4.36748 1.50261 4.59497 1.40739C4.82245 1.31217 5.06627 1.26316 5.3125 1.26316C5.55873 1.26316 5.80255 1.31217 6.03003 1.40739C6.25752 1.50261 6.46422 1.64217 6.63833 1.81811C6.81244 1.99406 6.95055 2.20293 7.04477 2.43281C7.139 2.66269 7.1875 2.90907 7.1875 3.15789C7.1875 3.66041 6.98996 4.14234 6.63833 4.49768C6.28669 4.85301 5.80978 5.05263 5.3125 5.05263C4.81522 5.05263 4.33831 4.85301 3.98667 4.49768C3.63504 4.14234 3.4375 3.66041 3.4375 3.15789ZM5.3125 0C4.4837 0 3.68884 0.332706 3.10279 0.924926C2.51674 1.51715 2.1875 2.32037 2.1875 3.15789C2.1875 3.99542 2.51674 4.79864 3.10279 5.39086C3.68884 5.98308 4.4837 6.31579 5.3125 6.31579C6.1413 6.31579 6.93616 5.98308 7.52221 5.39086C8.10826 4.79864 8.4375 3.99542 8.4375 3.15789C8.4375 2.32037 8.10826 1.51715 7.52221 0.924926C6.93616 0.332706 6.1413 0 5.3125 0ZM9.6875 0H9.0625V1.26316H9.6875C9.93373 1.26316 10.1775 1.31217 10.405 1.40739C10.6325 1.50261 10.8392 1.64217 11.0133 1.81811C11.1874 1.99406 11.3255 2.20293 11.4198 2.43281C11.514 2.66269 11.5625 2.90907 11.5625 3.15789C11.5625 3.40672 11.514 3.6531 11.4198 3.88298C11.3255 4.11286 11.1874 4.32173 11.0133 4.49768C10.8392 4.67362 10.6325 4.81318 10.405 4.9084C10.1775 5.00362 9.93373 5.05263 9.6875 5.05263H9.0625V6.31579H9.6875C10.5163 6.31579 11.3112 5.98308 11.8972 5.39086C12.4833 4.79864 12.8125 3.99542 12.8125 3.15789C12.8125 2.32037 12.4833 1.51715 11.8972 0.924926C11.3112 0.332706 10.5163 0 9.6875 0ZM0 10.7368C0 9.89932 0.32924 9.09609 0.915291 8.50387C1.50134 7.91165 2.2962 7.57895 3.125 7.57895H7.5C8.3288 7.57895 9.12366 7.91165 9.70971 8.50387C10.2958 9.09609 10.625 9.89932 10.625 10.7368V12H9.375V10.7368C9.375 10.2343 9.17746 9.75239 8.82583 9.39706C8.47419 9.04173 7.99728 8.8421 7.5 8.8421H3.125C2.62772 8.8421 2.15081 9.04173 1.79917 9.39706C1.44754 9.75239 1.25 10.2343 1.25 10.7368V12H0V10.7368ZM15 10.7368C15 10.3221 14.9192 9.9115 14.7621 9.52837C14.6051 9.14523 14.3749 8.79711 14.0847 8.50387C13.7945 8.21064 13.45 7.97803 13.0709 7.81933C12.6917 7.66063 12.2854 7.57895 11.875 7.57895H11.25V8.8421H11.875C12.3723 8.8421 12.8492 9.04173 13.2008 9.39706C13.5525 9.75239 13.75 10.2343 13.75 10.7368V12H15V10.7368Z" fill="black"/>
</svg>
