<svg width="18" height="23" viewBox="0 0 18 23" fill="none" xmlns="http://www.w3.org/2000/svg">
<g id="Group">
<path id="Vector" fill-rule="evenodd" clip-rule="evenodd" d="M1.99993 7.5C1.99993 5.64348 2.73743 3.86301 4.05018 2.55025C5.36294 1.2375 7.14341 0.5 8.99993 0.5C10.8564 0.5 12.6369 1.2375 13.9497 2.55025C15.2624 3.86301 15.9999 5.64348 15.9999 7.5V11.264L17.8219 14.908C17.9058 15.0757 17.9454 15.2621 17.937 15.4494C17.9286 15.6368 17.8724 15.8188 17.7738 15.9783C17.6752 16.1379 17.5375 16.2695 17.3737 16.3608C17.2099 16.4521 17.0255 16.5 16.8379 16.5H12.8739C12.6515 17.3582 12.1504 18.1183 11.4492 18.6609C10.748 19.2035 9.88653 19.4979 8.99993 19.4979C8.11333 19.4979 7.25183 19.2035 6.55067 18.6609C5.8495 18.1183 5.34837 17.3582 5.12593 16.5H1.16193C0.974408 16.5 0.789992 16.4521 0.626197 16.3608C0.462403 16.2695 0.324668 16.1379 0.226075 15.9783C0.127483 15.8188 0.0713053 15.6368 0.0628789 15.4494C0.0544524 15.2621 0.0940568 15.0757 0.17793 14.908L1.99993 11.264V7.5ZM7.26793 16.5C7.44347 16.804 7.69595 17.0565 7.99997 17.232C8.304 17.4075 8.64887 17.4999 8.99993 17.4999C9.35099 17.4999 9.69586 17.4075 9.99989 17.232C10.3039 17.0565 10.5564 16.804 10.7319 16.5H7.26793ZM8.99993 2.5C7.67385 2.5 6.40208 3.02678 5.4644 3.96447C4.52671 4.90215 3.99993 6.17392 3.99993 7.5V11.264C3.99991 11.5743 3.92767 11.8804 3.78893 12.158L2.61893 14.5H15.3819L14.2119 12.158C14.0728 11.8805 14.0003 11.5744 13.9999 11.264V7.5C13.9999 6.17392 13.4731 4.90215 12.5355 3.96447C11.5978 3.02678 10.326 2.5 8.99993 2.5Z" fill="black"/>
</g>
</svg>
