<svg viewBox="0 0 12 12" fill="none" xmlns="http://www.w3.org/2000/svg">
<path d="M5.99999 5.48706C5.31249 5.48706 4.72395 5.24227 4.23436 4.75269C3.74478 4.2631 3.49999 3.67456 3.49999 2.98706C3.49999 2.29956 3.74478 1.71102 4.23436 1.22144C4.72395 0.731852 5.31249 0.487061 5.99999 0.487061C6.68749 0.487061 7.27603 0.731852 7.76562 1.22144C8.2552 1.71102 8.49999 2.29956 8.49999 2.98706C8.49999 3.67456 8.2552 4.2631 7.76562 4.75269C7.27603 5.24227 6.68749 5.48706 5.99999 5.48706ZM0.166656 10.6475V10.141C0.166656 9.79699 0.266795 9.47512 0.467073 9.17539C0.66749 8.87581 0.937004 8.64317 1.27561 8.47748C2.062 8.10039 2.84888 7.81755 3.63624 7.62894C4.4236 7.44046 5.21152 7.34623 5.99999 7.34623C6.78846 7.34623 7.57638 7.44046 8.36374 7.62894C9.1511 7.81755 9.93798 8.10039 10.7244 8.47748C11.063 8.64317 11.3325 8.87581 11.5329 9.17539C11.7332 9.47512 11.8333 9.79699 11.8333 10.141V10.6475C11.8333 10.8921 11.7503 11.0974 11.5842 11.2635C11.418 11.4298 11.2126 11.5129 10.9679 11.5129H1.03207C0.787351 11.5129 0.581934 11.4298 0.415823 11.2635C0.249712 11.0974 0.166656 10.8921 0.166656 10.6475ZM0.99999 10.6796H11V10.141C11 9.95616 10.9404 9.78255 10.8212 9.62019C10.7022 9.45782 10.5374 9.32053 10.3269 9.20831C9.64103 8.87609 8.93388 8.62157 8.20541 8.44477C7.47693 8.26796 6.7418 8.17956 5.99999 8.17956C5.25818 8.17956 4.52305 8.26796 3.79457 8.44477C3.0661 8.62157 2.35895 8.87609 1.67311 9.20831C1.46256 9.32053 1.29777 9.45782 1.17874 9.62019C1.05957 9.78255 0.99999 9.95616 0.99999 10.141V10.6796ZM5.99999 4.65373C6.45832 4.65373 6.85069 4.49053 7.17707 4.16414C7.50346 3.83775 7.66666 3.44539 7.66666 2.98706C7.66666 2.52873 7.50346 2.13637 7.17707 1.80998C6.85069 1.48359 6.45832 1.32039 5.99999 1.32039C5.54166 1.32039 5.1493 1.48359 4.82291 1.80998C4.49652 2.13637 4.33332 2.52873 4.33332 2.98706C4.33332 3.44539 4.49652 3.83775 4.82291 4.16414C5.1493 4.49053 5.54166 4.65373 5.99999 4.65373Z" fill="#1C1B1F"/>
</svg>
