<svg width="25" height="24" viewBox="0 0 25 24" fill="none" xmlns="http://www.w3.org/2000/svg">
<path d="M17.5 5.5H7C3.41015 5.5 0.5 8.41015 0.5 12C0.5 15.5899 3.41015 18.5 7 18.5H17.5C21.0899 18.5 24 15.5899 24 12C24 8.41015 21.0899 5.5 17.5 5.5Z" fill="#6A1B9A" stroke="black" stroke-linejoin="round"/>
<path d="M17 18.5C20.5899 18.5 23.5 15.5899 23.5 12C23.5 8.41015 20.5899 5.5 17 5.5C13.4101 5.5 10.5 8.41015 10.5 12C10.5 15.5899 13.4101 18.5 17 18.5Z" fill="#F3E8FF" stroke="black" stroke-linejoin="round"/>
<path d="M17.453 12.29C16.5553 11.3931 16.3756 10.0771 16.8542 9C16.4955 9.11958 16.1962 9.35875 15.8973 9.658C15.6129 9.93999 15.3873 10.2755 15.2333 10.6451C15.0793 11.0148 15 11.4112 15 11.8117C15 12.2121 15.0793 12.6086 15.2333 12.9782C15.3873 13.3479 15.6129 13.6833 15.8973 13.9653C17.0937 15.1618 18.9481 15.102 20.1445 13.9055C20.4438 13.6063 20.6829 13.3073 20.8025 12.9483C19.6662 13.3671 18.3499 13.1875 17.4524 12.2903" stroke="black" stroke-width="0.5" stroke-linecap="round" stroke-linejoin="round"/>
</svg>
