<svg width="53" height="36" viewBox="0 0 53 36" fill="none" xmlns="http://www.w3.org/2000/svg">
<rect x="8.90201" width="36" height="36" rx="12" fill="#79747E" fill-opacity="0.3"/>
<path fill-rule="evenodd" clip-rule="evenodd" d="M24.7019 11.7H29.1021C29.8609 11.7 30.4727 11.7 30.9683 11.7406C31.4786 11.7826 31.9266 11.8701 32.341 12.0815C32.9995 12.417 33.535 12.9524 33.8705 13.611C34.0819 14.0254 34.1701 14.4741 34.2114 14.9837C34.252 15.4793 34.252 16.0911 34.252 16.8499V19.1501C34.252 19.9089 34.252 20.5207 34.2114 21.0163C34.1694 21.5266 34.0819 21.9746 33.8705 22.389C33.535 23.0475 32.9995 23.5829 32.341 23.9185C31.9266 24.1299 31.4786 24.2181 30.9683 24.2594C30.472 24.3 29.8609 24.3 29.1021 24.3H24.7019C23.9431 24.3 23.3313 24.3 22.8357 24.2594C22.3261 24.2174 21.8774 24.1299 21.4637 23.9185C20.8049 23.583 20.2692 23.0476 19.9335 22.389C19.7221 21.9746 19.6339 21.5266 19.5926 21.0163C19.552 20.52 19.552 19.9089 19.552 19.1501V16.8499C19.552 16.0911 19.552 15.4793 19.5926 14.9837C19.6346 14.4741 19.7221 14.0254 19.9335 13.6117C20.2688 12.9526 20.8043 12.4167 21.463 12.0808C21.8774 11.8694 22.3261 11.7812 22.8357 11.7399C23.332 11.7 23.9431 11.7 24.7019 11.7ZM22.9498 13.1357C22.5263 13.1707 22.2827 13.2351 22.0986 13.3289C21.7035 13.5302 21.3822 13.8514 21.1809 14.2466C21.0871 14.4307 21.0227 14.6743 20.9877 15.0978C20.9527 15.5297 20.952 16.0848 20.952 16.88V19.12C20.952 19.9159 20.952 20.4703 20.9877 20.9022C21.0227 21.3257 21.0871 21.5693 21.1809 21.7534C21.3822 22.1485 21.7035 22.4697 22.0986 22.6711C22.2827 22.7649 22.5263 22.8293 22.9498 22.8643C23.3817 22.8993 23.9368 22.9 24.732 22.9H25.152V13.1H24.732C23.9361 13.1 23.3817 13.1 22.9498 13.1357ZM26.552 13.1V22.9H29.072C29.8679 22.9 30.4223 22.9 30.8542 22.8643C31.2777 22.8293 31.5213 22.7649 31.7054 22.6711C32.1005 22.4697 32.4218 22.1485 32.6231 21.7534C32.7169 21.5693 32.7813 21.3257 32.8163 20.9022C32.8513 20.4703 32.852 19.9152 32.852 19.12V16.88C32.852 16.0841 32.852 15.5297 32.8163 15.0978C32.7813 14.6743 32.7169 14.4307 32.6231 14.2466C32.4218 13.8514 32.1005 13.5302 31.7054 13.3289C31.5213 13.2351 31.2777 13.1707 30.8542 13.1357C30.4223 13.1007 29.8672 13.1 29.072 13.1H26.552ZM22.002 15.55C22.002 15.3643 22.0758 15.1863 22.207 15.055C22.3383 14.9237 22.5164 14.85 22.702 14.85H23.402C23.5877 14.85 23.7657 14.9237 23.897 15.055C24.0283 15.1863 24.102 15.3643 24.102 15.55C24.102 15.7356 24.0283 15.9137 23.897 16.0449C23.7657 16.1762 23.5877 16.25 23.402 16.25H22.702C22.5164 16.25 22.3383 16.1762 22.207 16.0449C22.0758 15.9137 22.002 15.7356 22.002 15.55ZM22.002 18C22.002 17.8143 22.0758 17.6363 22.207 17.505C22.3383 17.3737 22.5164 17.3 22.702 17.3H23.402C23.5877 17.3 23.7657 17.3737 23.897 17.505C24.0283 17.6363 24.102 17.8143 24.102 18C24.102 18.1856 24.0283 18.3637 23.897 18.4949C23.7657 18.6262 23.5877 18.7 23.402 18.7H22.702C22.5164 18.7 22.3383 18.6262 22.207 18.4949C22.0758 18.3637 22.002 18.1856 22.002 18Z" fill="#79747E"/>
</svg>
