<svg width="20" height="20" viewBox="0 0 20 20" fill="none" xmlns="http://www.w3.org/2000/svg">
<g clip-path="url(#clip0_287_5537)">
<mask id="mask0_287_5537" style="mask-type:luminance" maskUnits="userSpaceOnUse" x="0" y="0" width="20" height="20">
<path d="M20 0H0V20H20V0Z" fill="white"/>
</mask>
<g mask="url(#mask0_287_5537)">
<path d="M17.562 0H2.43802C1.09153 0 0 1.09153 0 2.43802V17.562C0 18.9085 1.09153 20 2.43802 20H17.562C18.9085 20 20 18.9085 20 17.562V2.43802C20 1.09153 18.9085 0 17.562 0ZM8.7 15.5885C8.7 16.2139 8.19302 16.7208 7.56767 16.7208H3.73238C3.10698 16.7208 2.60005 16.2139 2.60005 15.5885V3.90233C2.60005 3.27693 3.10703 2.77 3.73238 2.77H7.56767C8.19307 2.77 8.7 3.27698 8.7 3.90233V15.5885ZM17.4 10.5612C17.4 11.1866 16.893 11.6935 16.2677 11.6935H12.4324C11.807 11.6935 11.3 11.1865 11.3 10.5612V3.90233C11.3 3.27693 11.807 2.77 12.4324 2.77H16.2677C16.8931 2.77 17.4 3.27698 17.4 3.90233V10.5612Z" fill="white"/>
</g>
</g>
<defs>
<clipPath id="clip0_287_5537">
<rect width="20" height="20" fill="white"/>
</clipPath>
</defs>
</svg>
